<svg width="39" height="39" viewBox="0 0 39 39" fill="none" xmlns="http://www.w3.org/2000/svg">
<path d="M35.5113 12.7006H26.4338V3.48645C26.4338 2.09834 25.3098 0.967285 23.9176 0.967285H13.9843C12.5978 0.967285 11.4681 2.09263 11.4681 3.48645V8.43911H15.3422V4.84601H22.554V23.537H19.3703V27.4157H26.4281V16.5793H34.1477V23.537H30.285V27.4157H35.5056C36.892 27.4157 38.0217 26.2904 38.0217 24.8965V15.2197C38.0217 13.8316 36.8977 12.7006 35.5113 12.7006Z" fill="#247CFF"/>
<path d="M22.5597 35.1102H15.3479V16.5792H18.5887V12.7004H11.4738V23.5312H3.87406V16.5792H7.67396V12.7004H2.51614C1.12399 12.7004 0 13.8315 0 15.2196V24.8964C0 26.2845 1.12399 27.4156 2.51614 27.4156H11.4738V36.4755C11.4738 37.8636 12.5978 38.9946 13.99 38.9946H23.9233C25.3098 38.9946 26.4395 37.8693 26.4395 36.4755V31.2657H22.5654V35.1102H22.5597Z" fill="#247CFF"/>
</svg>
